<?xml version="1.0" encoding="UTF-8" standalone="no"?>
<svg xmlns="http://www.w3.org/2000/svg" version="1.2" baseProfile="tiny" viewBox="0.00 0.00 1024.00 1024.00">
<g stroke-width="2.00" fill="none" stroke-linecap="butt">
<path stroke="#f4a508" vector-effect="non-scaling-stroke" d="
  M 504.33 198.42
  Q 503.76 199.74 503.03 199.22
  Q 501.17 197.92 499.47 196.45
  Q 497.78 194.99 495.80 194.06
  Q 481.47 187.35 467.15 189.52
  Q 451.81 191.85 442.20 201.47
  Q 420.00 223.69 400.27 243.27
  Q 400.07 243.47 399.73 244.27"
/>
<path stroke="#f4a508" vector-effect="non-scaling-stroke" d="
  M 131.25 512.34
  Q 112.80 530.86 93.85 549.82
  Q 85.89 557.78 83.00 562.51
  Q 76.92 572.47 76.50 585.20
  Q 76.16 595.17 80.21 604.89
  Q 81.88 608.90 84.74 612.75
  Q 85.30 613.51 85.02 613.85
  Q 84.70 614.26 83.52 614.27"
/>
<path stroke="#809971" vector-effect="non-scaling-stroke" d="
  M 790.78 260.65
  Q 790.16 261.04 789.89 260.86
  C 786.91 258.82 782.89 255.43 779.26 253.56
  Q 763.75 245.56 747.23 249.42
  C 736.55 251.91 729.63 257.05 721.73 264.99
  Q 707.56 279.21 692.70 294.19
  Q 687.72 299.21 683.35 303.48"
/>
<path stroke="#809971" vector-effect="non-scaling-stroke" d="
  M 474.85 512.57
  Q 470.83 515.82 466.59 520.09
  Q 452.21 534.55 438.42 548.21
  Q 429.40 557.15 426.25 562.46
  Q 418.50 575.50 419.91 591.66
  Q 420.49 598.18 423.87 605.39
  Q 427.01 612.06 431.47 618.32"
/>
<path stroke="#008fe9" vector-effect="non-scaling-stroke" d="
  M 941.31 411.18
  Q 940.19 411.21 939.98 412.03
  Q 939.87 412.42 940.08 412.76
  Q 946.96 424.18 947.59 435.58
  Q 948.43 450.98 939.35 464.50
  Q 936.54 468.68 925.89 479.21
  Q 910.84 494.09 896.78 507.99
  Q 895.73 509.04 894.78 510.15
  Q 893.89 511.20 892.73 512.32"
/>
<path stroke="#f4a508" vector-effect="non-scaling-stroke" d="
  M 713.60 407.70
  L 712.07 408.13
  Q 711.65 408.24 711.67 408.69
  Q 711.71 409.35 712.20 409.84
  Q 720.69 418.41 722.39 430.43
  Q 724.93 448.36 716.09 462.68
  Q 712.91 467.83 702.68 478.09
  Q 686.58 494.23 669.46 511.21
  Q 669.00 511.15 668.24 512.05"
/>
<path stroke="#f4a508" vector-effect="non-scaling-stroke" d="
  M 295.27 825.98
  Q 295.58 825.37 296.24 825.21
  Q 296.76 825.07 297.17 825.43
  Q 302.14 829.73 306.28 831.50
  Q 312.65 834.24 321.88 835.61
  Q 325.75 836.18 329.67 835.57
  C 336.05 834.57 342.70 832.98 348.26 829.69
  Q 354.96 825.72 362.36 818.36
  Q 381.15 799.68 399.74 780.84"
/>
</g>
<path fill="#ffbe0f" d="
  M 504.33 198.42
  Q 503.76 199.74 503.03 199.22
  Q 501.17 197.92 499.47 196.45
  Q 497.78 194.99 495.80 194.06
  Q 481.47 187.35 467.15 189.52
  Q 451.81 191.85 442.20 201.47
  Q 420.00 223.69 400.27 243.27
  Q 400.07 243.47 399.73 244.27
  L 131.25 512.34
  Q 112.80 530.86 93.85 549.82
  Q 85.89 557.78 83.00 562.51
  Q 76.92 572.47 76.50 585.20
  Q 76.16 595.17 80.21 604.89
  Q 81.88 608.90 84.74 612.75
  Q 85.30 613.51 85.02 613.85
  Q 84.70 614.26 83.52 614.27
  Q 39.15 569.68 22.11 552.89
  Q 13.88 544.78 8.93 538.78
  Q 2.33 530.78 0.00 517.88
  L 0.00 505.76
  Q 2.54 493.77 10.07 484.33
  Q 12.85 480.83 16.91 476.78
  Q 189.87 303.93 364.49 129.31
  Q 367.37 126.43 370.16 123.92
  Q 384.02 111.47 403.07 112.74
  Q 412.11 113.34 419.03 116.89
  C 427.23 121.10 434.48 128.33 441.05 134.95
  Q 472.60 166.79 504.33 198.42
  Z"
/>
<path fill="#ffbe0f" d="
  M 790.78 260.65
  Q 790.16 261.04 789.89 260.86
  C 786.91 258.82 782.89 255.43 779.26 253.56
  Q 763.75 245.56 747.23 249.42
  C 736.55 251.91 729.63 257.05 721.73 264.99
  Q 707.56 279.21 692.70 294.19
  Q 687.72 299.21 683.35 303.48
  L 474.85 512.57
  Q 470.83 515.82 466.59 520.09
  Q 452.21 534.55 438.42 548.21
  Q 429.40 557.15 426.25 562.46
  Q 418.50 575.50 419.91 591.66
  Q 420.49 598.18 423.87 605.39
  Q 427.01 612.06 431.47 618.32
  Q 427.57 614.72 415.80 602.70
  Q 397.85 584.38 360.85 547.99
  Q 358.66 545.83 356.55 543.48
  C 354.72 541.44 352.66 539.47 351.10 537.21
  Q 343.79 526.59 343.23 514.58
  Q 342.48 498.30 352.68 485.08
  Q 356.36 480.32 360.60 476.09
  Q 507.01 329.83 642.85 193.84
  Q 647.24 189.44 651.62 185.28
  Q 669.82 167.99 693.54 172.97
  Q 703.45 175.05 711.48 181.87
  Q 714.68 184.60 718.79 188.71
  Q 754.80 224.66 790.78 260.65
  Z"
/>
<path fill="#e88c00" d="
  M 504.33 198.42
  L 546.03 240.27
  A 1.50 1.50 0.0 0 1 546.23 242.13
  Q 545.07 243.93 543.42 245.59
  Q 510.26 278.83 478.67 310.26
  Q 476.23 312.69 473.52 315.11
  Q 472.28 316.21 471.10 315.04
  Q 435.06 278.94 400.98 244.77
  Q 400.42 244.21 399.73 244.27
  Q 400.07 243.47 400.27 243.27
  Q 420.00 223.69 442.20 201.47
  Q 451.81 191.85 467.15 189.52
  Q 481.47 187.35 495.80 194.06
  Q 497.78 194.99 499.47 196.45
  Q 501.17 197.92 503.03 199.22
  Q 503.76 199.74 504.33 198.42
  Z"
/>
<path fill="#0073d2" d="
  M 790.78 260.65
  L 941.31 411.18
  Q 940.19 411.21 939.98 412.03
  Q 939.87 412.42 940.08 412.76
  Q 946.96 424.18 947.59 435.58
  Q 948.43 450.98 939.35 464.50
  Q 936.54 468.68 925.89 479.21
  Q 910.84 494.09 896.78 507.99
  Q 895.73 509.04 894.78 510.15
  Q 893.89 511.20 892.73 512.32
  L 683.35 303.48
  Q 687.72 299.21 692.70 294.19
  Q 707.56 279.21 721.73 264.99
  C 729.63 257.05 736.55 251.91 747.23 249.42
  Q 763.75 245.56 779.26 253.56
  C 782.89 255.43 786.91 258.82 789.89 260.86
  Q 790.16 261.04 790.78 260.65
  Z"
/>
<path fill="#e88c00" d="
  M 713.60 407.70
  L 712.07 408.13
  Q 711.65 408.24 711.67 408.69
  Q 711.71 409.35 712.20 409.84
  Q 720.69 418.41 722.39 430.43
  Q 724.93 448.36 716.09 462.68
  Q 712.91 467.83 702.68 478.09
  Q 686.58 494.23 669.46 511.21
  Q 669.00 511.15 668.24 512.05
  L 596.49 440.02
  Q 595.55 439.08 596.49 438.14
  Q 631.65 402.87 666.31 368.36
  Q 667.85 366.83 669.50 365.63
  A 1.17 1.17 0.0 0 1 671.01 365.75
  L 713.60 407.70
  Z"
/>
<path fill="#ffbe0f" d="
  M 713.60 407.70
  Q 753.12 447.41 779.14 473.12
  C 785.30 479.21 791.45 485.53 795.22 493.25
  C 801.29 505.67 800.78 520.91 794.31 532.92
  Q 791.19 538.71 784.40 545.48
  C 665.43 664.04 547.72 781.85 431.31 898.39
  Q 421.03 908.69 409.21 911.07
  Q 405.37 911.84 401.82 911.78
  C 398.48 911.72 395.07 912.02 391.79 911.38
  Q 382.38 909.55 375.10 904.40
  Q 371.12 901.59 366.50 897.00
  Q 330.86 861.52 295.27 825.98
  Q 295.58 825.37 296.24 825.21
  Q 296.76 825.07 297.17 825.43
  Q 302.14 829.73 306.28 831.50
  Q 312.65 834.24 321.88 835.61
  Q 325.75 836.18 329.67 835.57
  C 336.05 834.57 342.70 832.98 348.26 829.69
  Q 354.96 825.72 362.36 818.36
  Q 381.15 799.68 399.74 780.84
  L 668.24 512.05
  Q 669.00 511.15 669.46 511.21
  Q 686.58 494.23 702.68 478.09
  Q 712.91 467.83 716.09 462.68
  Q 724.93 448.36 722.39 430.43
  Q 720.69 418.41 712.20 409.84
  Q 711.71 409.35 711.67 408.69
  Q 711.65 408.24 712.07 408.13
  L 713.60 407.70
  Z"
/>
<path fill="#00aaff" d="
  M 941.31 411.18
  Q 973.58 443.54 1006.01 475.75
  C 1010.33 480.04 1015.00 484.66 1017.94 489.69
  Q 1022.42 497.38 1024.00 506.38
  L 1024.00 517.76
  Q 1021.46 533.25 1010.71 543.99
  Q 860.34 694.29 715.98 838.73
  Q 702.61 852.11 684.27 852.59
  Q 666.01 853.07 651.95 839.04
  Q 631.66 818.77 613.05 799.78
  Q 611.73 798.43 610.49 796.85
  A 1.81 1.80 -41.8 0 1 610.63 794.46
  L 892.73 512.32
  Q 893.89 511.20 894.78 510.15
  Q 895.73 509.04 896.78 507.99
  Q 910.84 494.09 925.89 479.21
  Q 936.54 468.68 939.35 464.50
  Q 948.43 450.98 947.59 435.58
  Q 946.96 424.18 940.08 412.76
  Q 939.87 412.42 939.98 412.03
  Q 940.19 411.21 941.31 411.18
  Z"
/>
<path fill="#e88c00" d="
  M 131.25 512.34
  L 399.74 780.84
  Q 381.15 799.68 362.36 818.36
  Q 354.96 825.72 348.26 829.69
  C 342.70 832.98 336.05 834.57 329.67 835.57
  Q 325.75 836.18 321.88 835.61
  Q 312.65 834.24 306.28 831.50
  Q 302.14 829.73 297.17 825.43
  Q 296.76 825.07 296.24 825.21
  Q 295.58 825.37 295.27 825.98
  L 83.52 614.27
  Q 84.70 614.26 85.02 613.85
  Q 85.30 613.51 84.74 612.75
  Q 81.88 608.90 80.21 604.89
  Q 76.16 595.17 76.50 585.20
  Q 76.92 572.47 83.00 562.51
  Q 85.89 557.78 93.85 549.82
  Q 112.80 530.86 131.25 512.34
  Z"
/>
<path fill="#0073d2" d="
  M 474.85 512.57
  L 547.11 585.24
  A 0.53 0.53 0.0 0 1 547.07 586.02
  Q 545.50 587.33 544.19 588.63
  Q 507.84 624.86 473.44 659.25
  A 0.47 0.47 0.0 0 1 472.78 659.25
  L 431.47 618.32
  Q 427.01 612.06 423.87 605.39
  Q 420.49 598.18 419.91 591.66
  Q 418.50 575.50 426.25 562.46
  Q 429.40 557.15 438.42 548.21
  Q 452.21 534.55 466.59 520.09
  Q 470.83 515.82 474.85 512.57
  Z"
/>
</svg>
