<?xml version="1.0" encoding="UTF-8"?><svg id="_レイヤー_2" xmlns="http://www.w3.org/2000/svg" viewBox="0 0 346.71 270.63"><defs><style>.cls-1{fill:#0af;}.cls-2{fill:#0073d2;}.cls-3{fill:#e88c00;}.cls-4{fill:#ffbe0f;}</style></defs><g id="_レイヤー_1-2"><path class="cls-2" d="m185.1,159.99l-24.68-24.68-13.91,13.91c-6.18,6.18-6.18,16.21,0,22.39l13.48,13.48,25.1-25.1Z"/><path class="cls-3" d="m149.22,30.22l-13.91,13.91,24.68,24.68,25.1-25.1-13.48-13.48c-6.18-6.18-16.21-6.18-22.39,0Z"/><path class="cls-3" d="m226.93,85.54l-25.1,25.1,24.68,24.68,13.91-13.91c6.18-6.18,6.18-16.21,0-22.39l-13.48-13.48Z"/><path class="cls-3" d="m135.32,226.51l-91.19-91.19-13.91,13.91c-6.18,6.18-6.18,16.21,0,22.39l68.8,68.8c6.18,6.18,16.21,6.18,22.39,0l13.91-13.91Z"/><path class="cls-2" d="m245.41,50.32l-13.91,13.91,71.09,71.09,13.91-13.91c6.18-6.18,6.18-16.21,0-22.39l-48.7-48.7c-6.18-6.18-16.21-6.18-22.39,0Z"/><path class="cls-4" d="m30.22,149.22l13.91-13.91h0s91.19-91.19,91.19-91.19h0l13.91-13.91c6.18-6.18,16.21-6.18,22.39,0l-11.19-11.19-14.72-14.72c-5.73-5.73-15.03-5.73-20.76,0L4.3,124.94c-5.73,5.73-5.73,15.03,0,20.76l11.29,11.29h0l14.63,14.63h0c-6.18-6.18-6.18-16.21,0-22.39Z"/><path class="cls-4" d="m266.33,124.94l-14.72-14.72-11.19-11.19c6.18,6.18,6.18,16.21,0,22.39l-13.91,13.91h0s-91.19,91.19-91.19,91.19l-13.91,13.91h0c-6.18,6.18-16.2,6.18-22.39,0h0l11.19,11.19,14.72,14.72c5.73,5.73,15.03,5.73,20.76,0l120.64-120.63c5.73-5.73,5.73-15.03,0-20.76Z"/><path class="cls-1" d="m342.41,124.94l-14.72-14.72-11.19-11.19c6.18,6.18,6.18,16.2,0,22.39l-13.91,13.91h0l-71.09,71.09-25.1,25.1,14.72,14.72c5.73,5.73,15.03,5.73,20.76,0l100.53-100.53c5.73-5.73,5.73-15.03,0-20.76Z"/><path class="cls-4" d="m146.51,149.22l13.91-13.91h0s0,0,0,0l71.09-71.09h0l13.91-13.91c6.18-6.18,16.21-6.18,22.39,0l-11.19-11.19-14.72-14.72c-5.73-5.73-15.03-5.73-20.76,0l-100.53,100.53c-5.73,5.73-5.73,15.03,0,20.76l14.72,14.72,11.19,11.19h0c-6.18-6.18-6.18-16.21,0-22.39Z"/></g></svg>