<svg xmlns="http://www.w3.org/2000/svg" id="_レイヤー_1" viewBox="0 0 600 600"><defs><style>.cls-2{fill:#0073d2}.cls-3{fill:#e88c00}.cls-4{fill:#ffbe0f}</style></defs><path d="M311.74 324.68 287.06 300l-13.91 13.91c-6.18 6.18-6.18 16.21 0 22.39l13.48 13.48 25.1-25.1Z" class="cls-2"/><path d="m275.87 194.9-13.91 13.91 24.68 24.68 25.1-25.1-13.48-13.48c-6.18-6.18-16.21-6.18-22.39 0ZM353.58 250.22l-25.1 25.1L353.16 300l13.91-13.91c6.18-6.18 6.18-16.21 0-22.39l-13.48-13.48ZM261.96 391.19 170.77 300l-13.91 13.91c-6.18 6.18-6.18 16.21 0 22.39l68.8 68.8c6.18 6.18 16.21 6.18 22.39 0z" class="cls-3"/><path d="m372.05 215.01-13.91 13.91 71.09 71.09 13.91-13.91c6.18-6.18 6.18-16.21 0-22.39l-48.7-48.7c-6.18-6.18-16.21-6.18-22.39 0" class="cls-2"/><path d="M156.86 313.91 170.77 300l91.19-91.19 13.91-13.91c6.18-6.18 16.21-6.18 22.39 0l-11.19-11.19-14.72-14.72c-5.73-5.73-15.03-5.73-20.76 0L130.95 289.63c-5.73 5.73-5.73 15.03 0 20.76l11.29 11.29 14.63 14.63c-6.18-6.18-6.18-16.21 0-22.39ZM392.98 289.62l-14.72-14.72-11.19-11.19c6.18 6.18 6.18 16.21 0 22.39l-13.91 13.91-91.19 91.19-13.91 13.91c-6.18 6.18-16.2 6.18-22.39 0l11.19 11.19 14.72 14.72c5.73 5.73 15.03 5.73 20.76 0l120.64-120.63c5.73-5.73 5.73-15.03 0-20.76Z" class="cls-4"/><path d="m469.06 289.62-14.72-14.72-11.19-11.19c6.18 6.18 6.18 16.2 0 22.39l-13.91 13.91-71.09 71.09-25.1 25.1 14.72 14.72c5.73 5.73 15.03 5.73 20.76 0l100.53-100.53c5.73-5.73 5.73-15.03 0-20.76Z" style="fill:#0af"/><path d="M273.15 313.91 287.06 300l71.09-71.09L372.06 215c6.18-6.18 16.21-6.18 22.39 0l-11.19-11.19-14.72-14.72c-5.73-5.73-15.03-5.73-20.76 0L247.25 289.62c-5.73 5.73-5.73 15.03 0 20.76l14.72 14.72 11.19 11.19c-6.18-6.18-6.18-16.21 0-22.39Z" class="cls-4"/></svg>